<svg data-name="website coding and gear" xmlns="http://www.w3.org/2000/svg" width="80.943" height="80.944" viewBox="0 0 80.943 80.944">
  <circle data-name="Ellipse 111" cx="0.703" cy="0.703" r="0.703" transform="translate(7.547 6.14)" fill="#1b1c21"/>
  <ellipse data-name="Ellipse 112" cx="1.854" cy="0.927" rx="1.854" ry="0.927" transform="translate(13.516 5.562)" fill="#1b1c21"/>
  <circle data-name="Ellipse 113" cx="0.927" cy="0.927" r="0.927" transform="translate(21.219 5.562)" fill="#1b1c21"/>
  <path data-name="Path 1384" d="M79.257,59.021H76.593a1.028,1.028,0,0,1-.084-.2L78.4,56.93a1.686,1.686,0,0,0,.489-1.2,1.771,1.771,0,0,0-.489-1.2l-4.2-4.182V6.745A6.745,6.745,0,0,0,67.453,0H6.745A6.745,6.745,0,0,0,0,6.745V65.767a1.686,1.686,0,0,0,1.686,1.686H47.217A1.686,1.686,0,0,0,48.9,69.139h2.664a1.03,1.03,0,0,1,.084.2L49.763,71.23a1.686,1.686,0,0,0-.489,1.2,1.771,1.771,0,0,0,.489,1.2L54.536,78.4a1.686,1.686,0,0,0,2.395,0l1.889-1.889.2.084v2.664a1.686,1.686,0,0,0,1.686,1.686h6.745a1.686,1.686,0,0,0,1.686-1.686V76.593l.2-.084L71.23,78.4a1.686,1.686,0,0,0,1.2.489,1.771,1.771,0,0,0,1.2-.489L78.4,73.625a1.771,1.771,0,0,0,.489-1.2,1.686,1.686,0,0,0-.489-1.2l-1.889-1.889a1.028,1.028,0,0,1,.084-.2h2.664a1.686,1.686,0,0,0,1.686-1.686V60.708A1.686,1.686,0,0,0,79.257,59.021ZM3.373,6.745A3.373,3.373,0,0,1,6.745,3.373H67.453a3.373,3.373,0,0,1,3.373,3.373v3.373H3.373Zm0,57.335V13.491H70.826V50.185l-1.484,1.467-.2-.084V48.9a1.686,1.686,0,0,0-1.686-1.686H60.708A1.686,1.686,0,0,0,59.021,48.9v2.664l-.2.084L56.93,49.763a1.686,1.686,0,0,0-1.2-.489,1.771,1.771,0,0,0-1.2.489l-4.772,4.772a1.771,1.771,0,0,0-.489,1.2,1.686,1.686,0,0,0,.489,1.2l1.889,1.889a1.03,1.03,0,0,1-.084.2H48.9a1.686,1.686,0,0,0-1.686,1.686V64.08Zm74.2,1.686H75.4a1.686,1.686,0,0,0-1.686,1.2,9.782,9.782,0,0,1-.793,1.922,1.686,1.686,0,0,0,.354,1.939l1.535,1.535-2.293,2.445-1.686-1.535a1.686,1.686,0,0,0-2.007-.287,9.78,9.78,0,0,1-1.922.793,1.686,1.686,0,0,0-1.2,1.686v2.108H62.394V75.4a1.686,1.686,0,0,0-1.2-1.686,9.781,9.781,0,0,1-1.922-.793,1.686,1.686,0,0,0-2.007.287l-1.535,1.535-2.378-2.226,1.535-1.535a1.686,1.686,0,0,0,.287-2.007,9.78,9.78,0,0,1-.793-1.922,1.686,1.686,0,0,0-1.686-1.2H50.59V62.394h2.175a1.686,1.686,0,0,0,1.686-1.2,9.78,9.78,0,0,1,.793-1.922,1.686,1.686,0,0,0-.354-1.939L53.355,55.8l2.378-2.378,1.535,1.535a1.686,1.686,0,0,0,2.007.287,9.78,9.78,0,0,1,1.922-.793,1.686,1.686,0,0,0,1.2-1.686V50.59h3.373v2.175a1.686,1.686,0,0,0,1.2,1.686,9.781,9.781,0,0,1,1.922.793,1.686,1.686,0,0,0,1.939-.354l1.535-1.535,2.378,2.378L73.2,57.268a1.686,1.686,0,0,0-.287,2.007,9.782,9.782,0,0,1,.793,1.922,1.686,1.686,0,0,0,1.686,1.2h2.175Z" transform="translate(0 0)" fill="#1b1c21"/>
  <path data-name="Path 1385" d="M54.182,44.593a6.489,6.489,0,1,0,6.489,6.489A6.489,6.489,0,0,0,54.182,44.593Zm0,9.733a3.244,3.244,0,1,1,3.244-3.244A3.244,3.244,0,0,1,54.182,54.326ZM21.267,19.107a1.622,1.622,0,0,0-2.3,0L12.474,25.6a1.622,1.622,0,0,0,0,2.3l6.489,6.489a1.629,1.629,0,1,0,2.3-2.3l-5.353-5.337,5.353-5.337a1.622,1.622,0,0,0,0-2.3ZM43.978,25.6l-6.489-6.489a1.629,1.629,0,1,0-2.3,2.3l5.353,5.337-5.353,5.337a1.629,1.629,0,1,0,2.3,2.3L43.978,27.9a1.622,1.622,0,0,0,0-2.3ZM30.173,17.015a1.622,1.622,0,0,0-1.947,1.3L24.982,34.535a1.622,1.622,0,0,0,1.3,1.947H26.6a1.622,1.622,0,0,0,1.622-1.3l3.244-16.222a1.622,1.622,0,0,0-1.3-1.947Z" transform="translate(10.539 13.639)" fill="#1b1c21"/>
</svg>
